# xmcd CD database file
#
# Track frame offsets:
#	150
#	13435
#	28595
#	40622
#	55335
#	69622
#	82627
#	98477
#
# Disc length: 1563 seconds
#
# Revision: 0
# Processed by: cddbd v1.5.2PL0 Copyright (c) Steve Scherf et al.
# Submitted via: CDex 1.70beta2
#
DISCID=58061908
DTITLE=Nadine - Cdn. SK - Saskatoon - How 'Bout Me
DYEAR=1900
DGENRE=Country
TTITLE0=How'Bout Me
TTITLE1=Hold On (To What You've Got)
TTITLE2=I'm Pickin' Me Up
TTITLE3=Holding Out For Love
TTITLE4=What Will You Do
TTITLE5=A Little Too Late
TTITLE6=Daddy Laid the Blues On Me
TTITLE7=When I Need You
EXTD=
EXTT0=
EXTT1=
EXTT2=
EXTT3=
EXTT4=
EXTT5=
EXTT6=
EXTT7=
PLAYORDER=
